# xmcd
#
# Track frame offsets:
#	150
#	1943
#	20492
#	36846
#	52984
#	66974
#	81246
#	95158
#	106735
#	109576
#	124212
#	137170
#	155815
#	171938
#	185876
#
# Disc length: 2515 seconds
#
# Revision: 0
# Processed by: cddbd v1.5.2PL0 Copyright (c) Steve Scherf et al.
# Submitted via: EasyCDDAExtractor 10.0.5.1
#
DISCID=cf09d10f
DTITLE=Tété - Le sacre des Lemmings
DYEAR=2006
DGENRE=Chanson francaise
TTITLE0=L'aube des Lemmings
TTITLE1=Fils de Cham
TTITLE2=Anna Lee soleil
TTITLE3=Madeleine bas-de-laine
TTITLE4=La relance
TTITLE5=Comme feuillets au vent
TTITLE6=Caroline Oh Yeah Hey !
TTITLE7=A la vie à la mort
TTITLE8=Le sacre de Lemmings
TTITLE9=A flanc de certitude
TTITLE10=Mon trésor
TTITLE11=Par monts et vallons (Le long de la route)
TTITLE12=Les visages et les moments
TTITLE13=La croisée des chemins
TTITLE14=Le crépuscule des Lemmings
EXTD=
EXTT0=
EXTT1=
EXTT2=
EXTT3=
EXTT4=
EXTT5=
EXTT6=
EXTT7=
EXTT8=
EXTT9=
EXTT10=
EXTT11=
EXTT12=
EXTT13=
EXTT14=
PLAYORDER=
